<svg viewBox="0 0 700 246" xmlns="http://www.w3.org/2000/svg" xmlns:xlink="http://www.w3.org/1999/xlink"><linearGradient id="a" gradientTransform="matrix(-1 0 0 -1 9427.36 396)" gradientUnits="userSpaceOnUse" x1="9367.66" x2="9367.66" y1="199.88" y2="176.72"><stop offset="0" stop-color="#7f76b6"/><stop offset="1" stop-color="#77c3e2"/></linearGradient><linearGradient id="b" gradientTransform="matrix(1 0 0 -1 0 382)" x1="18.08" x2="101.42" xlink:href="#a" y1="174.28" y2="257.62"/><linearGradient id="c" gradientUnits="userSpaceOnUse" x1="46.39" x2="72.87" y1="232.56" y2="206.08"><stop offset="0" stop-color="#7f76b6"/><stop offset=".05" stop-color="#7d88c0"/><stop offset=".14" stop-color="#7b9ecd"/><stop offset=".23" stop-color="#79afd6"/><stop offset=".36" stop-color="#78badd"/><stop offset=".53" stop-color="#77c1e1"/><stop offset="1" stop-color="#77c3e2"/></linearGradient><linearGradient id="d" x1="211.12" x2="133.49" xlink:href="#a" y1="159.11" y2="159.11"/><linearGradient id="e" x1="133.49" x2="211.12" xlink:href="#a" y1="189.11" y2="189.11"/><linearGradient id="f" x1="211.12" x2="133.49" xlink:href="#a" y1="219.32" y2="219.32"/><linearGradient id="g" x1="246.35" x2="308.47" xlink:href="#a" y1="205.35" y2="143.24"/><linearGradient id="h" x1="9009.66" x2="9009.66" xlink:href="#a" y1="199.96" y2="176.8"/><linearGradient id="i" gradientTransform="matrix(1 0 0 -1 0 382)" x1="376.08" x2="459.42" xlink:href="#a" y1="174.36" y2="257.7"/><linearGradient id="j" x1="404.39" x2="430.87" xlink:href="#c" y1="232.47" y2="206"/><linearGradient id="k" x1="569.12" x2="491.49" xlink:href="#a" y1="159.24" y2="159.24"/><linearGradient id="l" x1="569.12" x2="491.49" xlink:href="#a" y1="189.24" y2="189.24"/><linearGradient id="m" x1="491.49" x2="569.12" xlink:href="#a" y1="129.24" y2="129.24"/><linearGradient id="n" x1="569.12" x2="491.49" xlink:href="#a" y1="219.24" y2="219.24"/><linearGradient id="o" x1="597.35" x2="659.47" xlink:href="#a" y1="205.27" y2="143.16"/><g fill="#404242"><path d="m202.9 30.75h-2v-15.36h-5.42v-1.77h12.84v1.77h-5.42z"/><path d="m217.58 15.16a5.59 5.59 0 0 0 -4.46 1.84 7.58 7.58 0 0 0 -1.63 5.15 7.77 7.77 0 0 0 1.57 5.2 5.61 5.61 0 0 0 4.5 1.83 15.75 15.75 0 0 0 4.09-.64v1.74a12.49 12.49 0 0 1 -4.4.67 7.44 7.44 0 0 1 -5.84-2.3 9.44 9.44 0 0 1 -2.06-6.52 10.34 10.34 0 0 1 1-4.65 7.18 7.18 0 0 1 2.85-3.07 8.77 8.77 0 0 1 4.4-1.07 10.62 10.62 0 0 1 4.72 1l-.85 1.71a9 9 0 0 0 -3.89-.89z"/><path d="m236.08 18.61a4.83 4.83 0 0 1 -1.78 4 8.06 8.06 0 0 1 -5.08 1.4h-2v6.73h-2v-17.12h4.44c4.28 0 6.42 1.67 6.42 4.99zm-8.87 3.7h1.79a6.67 6.67 0 0 0 3.83-.86 3.14 3.14 0 0 0 1.17-2.74 3 3 0 0 0 -1.11-2.53 5.77 5.77 0 0 0 -3.47-.84h-2.22z"/><path d="m248.42 30.75-4.88-12.84h2.09l2.76 7.62a32 32 0 0 1 1.1 3.47h.1a26.22 26.22 0 0 1 .81-2.58c.46-1.3 1.49-4.13 3.08-8.51h2.08l-4.87 12.84z"/><path d="m266.16 27.25a3.22 3.22 0 0 1 -1.33 2.75 6.27 6.27 0 0 1 -3.75 1 8.19 8.19 0 0 1 -4-.81v-1.8a9.81 9.81 0 0 0 2 .73 8.32 8.32 0 0 0 2.05.27 4.7 4.7 0 0 0 2.34-.48 1.61 1.61 0 0 0 .82-1.48 1.64 1.64 0 0 0 -.65-1.29 10.56 10.56 0 0 0 -2.54-1.26 14 14 0 0 1 -2.55-1.16 3.53 3.53 0 0 1 -1.12-1.13 3 3 0 0 1 -.37-1.52 2.88 2.88 0 0 1 1.28-2.48 6 6 0 0 1 3.5-.9 10.36 10.36 0 0 1 4.06.84l-.7 1.58a9.28 9.28 0 0 0 -3.5-.79 4 4 0 0 0 -2.09.43 1.36 1.36 0 0 0 -.7 1.19 1.48 1.48 0 0 0 .26.88 2.45 2.45 0 0 0 .85.69 18 18 0 0 0 2.25.95 8.43 8.43 0 0 1 3.09 1.68 2.93 2.93 0 0 1 .8 2.11z"/><path d="m288.79 13.62v11.09a6 6 0 0 1 -1.77 4.6 6.77 6.77 0 0 1 -4.86 1.69 6.48 6.48 0 0 1 -4.79-1.69 6.24 6.24 0 0 1 -1.69-4.64v-11h2v11.13a4.39 4.39 0 0 0 1.17 3.29 4.73 4.73 0 0 0 3.45 1.15 4.56 4.56 0 0 0 3.34-1.15 4.44 4.44 0 0 0 1.17-3.31v-11.16z"/><path d="m306.8 22c0 2.83-.76 5-2.3 6.49s-3.74 2.24-6.63 2.24h-4.74v-17.11h5.25a8.39 8.39 0 0 1 6.21 2.22 8.37 8.37 0 0 1 2.21 6.16zm-2.11.07a6.92 6.92 0 0 0 -1.69-5.07 6.74 6.74 0 0 0 -5-1.7h-2.89v13.7h2.43a7.35 7.35 0 0 0 5.35-1.75 6.93 6.93 0 0 0 1.8-5.16z"/><path d="m321.28 18.61a4.82 4.82 0 0 1 -1.77 4 8.06 8.06 0 0 1 -5.08 1.4h-2v6.73h-2v-17.12h4.44c4.27 0 6.41 1.67 6.41 4.99zm-8.87 3.7h1.8a6.67 6.67 0 0 0 3.83-.86 3.14 3.14 0 0 0 1.18-2.74 3 3 0 0 0 -1.11-2.53 5.77 5.77 0 0 0 -3.47-.84h-2.23z"/><path d="m338.44 15.16a5.59 5.59 0 0 0 -4.44 1.84 7.58 7.58 0 0 0 -1.63 5.15 7.77 7.77 0 0 0 1.57 5.2 5.61 5.61 0 0 0 4.5 1.83 15.75 15.75 0 0 0 4.09-.64v1.74a12.53 12.53 0 0 1 -4.4.67 7.44 7.44 0 0 1 -5.84-2.3 9.44 9.44 0 0 1 -2.06-6.52 10.34 10.34 0 0 1 1-4.65 7.2 7.2 0 0 1 2.86-3.07 8.77 8.77 0 0 1 4.4-1.07 10.62 10.62 0 0 1 4.72 1l-.85 1.71a9.06 9.06 0 0 0 -3.92-.89z"/><path d="m356.55 24.32a7.07 7.07 0 0 1 -1.55 4.91 5.58 5.58 0 0 1 -4.4 1.77 5.78 5.78 0 0 1 -3.06-.81 5.3 5.3 0 0 1 -2.06-2.32 8.16 8.16 0 0 1 -.73-3.54 7.11 7.11 0 0 1 1.57-4.89 5.55 5.55 0 0 1 4.36-1.75 5.43 5.43 0 0 1 4.32 1.78 7 7 0 0 1 1.55 4.85zm-9.78 0a6.14 6.14 0 0 0 1 3.75 3.91 3.91 0 0 0 5.8 0 6.09 6.09 0 0 0 1-3.76 6 6 0 0 0 -1-3.72 3.48 3.48 0 0 0 -2.93-1.27 3.44 3.44 0 0 0 -2.88 1.25 6.05 6.05 0 0 0 -.99 3.75z"/><path d="m376.14 30.75v-8.35a3.45 3.45 0 0 0 -.66-2.3 2.51 2.51 0 0 0 -2-.77 3.3 3.3 0 0 0 -2.68 1 5 5 0 0 0 -.87 3.21v7.17h-1.93v-8.31a3.45 3.45 0 0 0 -.66-2.3 2.53 2.53 0 0 0 -2.05-.77 3.18 3.18 0 0 0 -2.68 1.09 6 6 0 0 0 -.85 3.6v6.73h-1.94v-12.84h1.58l.32 1.76h.09a3.86 3.86 0 0 1 1.55-1.47 4.78 4.78 0 0 1 2.25-.52c2 0 3.32.72 3.93 2.18h.1a4.07 4.07 0 0 1 1.66-1.6 5.2 5.2 0 0 1 2.49-.58 4.33 4.33 0 0 1 3.21 1.12 5 5 0 0 1 1.08 3.58v8.37z"/><path d="m398.23 30.75v-8.35a3.45 3.45 0 0 0 -.66-2.3 2.52 2.52 0 0 0 -2-.77 3.3 3.3 0 0 0 -2.68 1 5 5 0 0 0 -.87 3.21v7.17h-2.02v-8.31a3.45 3.45 0 0 0 -.66-2.3 2.53 2.53 0 0 0 -2.05-.77 3.18 3.18 0 0 0 -2.68 1.09 5.94 5.94 0 0 0 -.85 3.6v6.73h-1.94v-12.84h1.58l.31 1.76h.1a3.79 3.79 0 0 1 1.55-1.47 4.77 4.77 0 0 1 2.24-.52c2 0 3.32.72 3.94 2.18h.1a4 4 0 0 1 1.66-1.6 5.16 5.16 0 0 1 2.48-.58 4.34 4.34 0 0 1 3.27 1.12 5 5 0 0 1 1.08 3.58v8.37z"/><path d="m405.77 17.91v8.33a3.36 3.36 0 0 0 .72 2.35 2.92 2.92 0 0 0 2.24.77 3.65 3.65 0 0 0 2.94-1.1 5.57 5.57 0 0 0 .94-3.6v-6.75h1.94v12.84h-1.55l-.34-1.75h-.1a3.87 3.87 0 0 1 -1.66 1.46 5.66 5.66 0 0 1 -2.42.5 4.93 4.93 0 0 1 -3.48-1.08 4.75 4.75 0 0 1 -1.17-3.57v-8.4z"/><path d="m427.18 30.75v-8.3a3.4 3.4 0 0 0 -.71-2.35 3 3 0 0 0 -2.24-.77 3.66 3.66 0 0 0 -3 1.09 5.47 5.47 0 0 0 -.94 3.6v6.73h-1.95v-12.84h1.66l.32 1.76h.09a4 4 0 0 1 1.68-1.47 5.41 5.41 0 0 1 2.4-.52 4.89 4.89 0 0 1 3.51 1.12 4.76 4.76 0 0 1 1.17 3.58v8.37z"/><path d="m432.7 14.43a1.3 1.3 0 0 1 .33-1 1.21 1.21 0 0 1 1.63 0 1.28 1.28 0 0 1 .34 1 1.32 1.32 0 0 1 -.34 1 1.17 1.17 0 0 1 -.81.32 1.14 1.14 0 0 1 -.82-.32 1.32 1.32 0 0 1 -.33-1zm2.11 16.32h-1.95v-12.84h1.95z"/><path d="m443.84 31a5.47 5.47 0 0 1 -4.32-1.72 7 7 0 0 1 -1.52-4.86 7.34 7.34 0 0 1 1.55-5 5.6 5.6 0 0 1 4.45-1.74 8.41 8.41 0 0 1 1.86.2 6.54 6.54 0 0 1 1.45.46l-.6 1.66a9.19 9.19 0 0 0 -1.4-.43 6.54 6.54 0 0 0 -1.35-.17q-3.92 0-3.92 5a5.9 5.9 0 0 0 .96 3.6 3.31 3.31 0 0 0 2.83 1.27 8.64 8.64 0 0 0 3.29-.69v1.72a7 7 0 0 1 -3.28.7z"/><path d="m458.18 30.75-.39-1.82h-.09a5.36 5.36 0 0 1 -1.92 1.63 5.72 5.72 0 0 1 -2.38.43 4.29 4.29 0 0 1 -3-1 3.57 3.57 0 0 1 -1.08-2.8q0-3.89 6.22-4.07l2.18-.07v-.8a3.21 3.21 0 0 0 -.65-2.23 2.66 2.66 0 0 0 -2.08-.72 8.39 8.39 0 0 0 -3.63 1l-.6-1.49a9.57 9.57 0 0 1 2.08-.81 9.3 9.3 0 0 1 2.27-.29 4.87 4.87 0 0 1 3.4 1 4.25 4.25 0 0 1 1.11 3.29v8.76zm-4.39-1.37a4 4 0 0 0 2.85-1 3.71 3.71 0 0 0 1-2.79v-1.15l-1.95.08a7.25 7.25 0 0 0 -3.35.72 2.19 2.19 0 0 0 -1 2 2 2 0 0 0 .64 1.6 2.63 2.63 0 0 0 1.81.54z"/><path d="m467.67 29.38a6.54 6.54 0 0 0 1-.07 7.4 7.4 0 0 0 .76-.16v1.49a3.76 3.76 0 0 1 -.93.25 6.61 6.61 0 0 1 -1.11.1q-3.74 0-3.73-3.93v-7.64h-1.84v-.93l1.84-.81.82-2.75h1.13v3h3.72v1.51h-3.72v7.56a2.58 2.58 0 0 0 .55 1.78 1.9 1.9 0 0 0 1.51.6z"/><path d="m471.81 14.43a1.34 1.34 0 0 1 .32-1 1.2 1.2 0 0 1 .83-.31 1.13 1.13 0 0 1 .8.32 1.24 1.24 0 0 1 .34 1 1.28 1.28 0 0 1 -.34 1 1.13 1.13 0 0 1 -.8.32 1.16 1.16 0 0 1 -.83-.32 1.36 1.36 0 0 1 -.32-1.01zm2.11 16.32h-1.92v-12.84h1.95z"/><path d="m488.85 24.32a7.12 7.12 0 0 1 -1.58 4.91 5.59 5.59 0 0 1 -4.37 1.77 5.78 5.78 0 0 1 -3.06-.81 5.3 5.3 0 0 1 -2.06-2.32 8 8 0 0 1 -.73-3.54 7.06 7.06 0 0 1 1.57-4.89 5.55 5.55 0 0 1 4.38-1.76 5.39 5.39 0 0 1 4.28 1.79 7.05 7.05 0 0 1 1.57 4.85zm-9.78 0a6.07 6.07 0 0 0 1 3.75 3.91 3.91 0 0 0 5.8 0 6.09 6.09 0 0 0 1-3.76 6 6 0 0 0 -1-3.72 3.48 3.48 0 0 0 -2.93-1.27 3.44 3.44 0 0 0 -2.94 1.26 6.05 6.05 0 0 0 -.93 3.74z"/><path d="m500.85 30.75v-8.3a3.35 3.35 0 0 0 -.71-2.35 2.94 2.94 0 0 0 -2.24-.77 3.67 3.67 0 0 0 -2.9 1.09 5.47 5.47 0 0 0 -1 3.58v6.73h-1.95v-12.82h1.59l.31 1.76h.1a4 4 0 0 1 1.67-1.47 5.41 5.41 0 0 1 2.4-.52 4.87 4.87 0 0 1 3.5 1.12 4.76 4.76 0 0 1 1.17 3.58v8.37z"/></g><path d="m0 44.5h331v198h-331z" fill="none" stroke="#a5a5a5" stroke-linecap="round" stroke-linejoin="round"/><path d="m340 44.5h360v198h-360z" fill="none" stroke="#a5a5a5" stroke-linecap="round" stroke-linejoin="round"/><path d="m48.1 219.32h23.2v-23.2h-23.2z" fill="url(#a)"/><path d="m109.86 196.26h-100.19a2.17 2.17 0 0 1 -2.19-2.2v-56a2.17 2.17 0 0 1 2.19-2.2h100.19a2.17 2.17 0 0 1 2.2 2.2v55.86a2.29 2.29 0 0 1 -2.2 2.34z" fill="#fff" stroke="url(#b)" stroke-miterlimit="10" stroke-width="3"/><path d="m34.65 219.32h50" fill="none" stroke="url(#c)" stroke-miterlimit="10" stroke-width="3"/><g fill="#808285"><path d="m166.12 146a2.3 2.3 0 0 1 -.85 1.87 3.75 3.75 0 0 1 -2.38.68 5.41 5.41 0 0 1 -2.47-.53v-1.72a11.36 11.36 0 0 0 1.49.56 4.39 4.39 0 0 0 1.09.14 1.62 1.62 0 0 0 .93-.23.81.81 0 0 0 .33-.7.83.83 0 0 0 -.14-.46 1.64 1.64 0 0 0 -.43-.38 9.06 9.06 0 0 0 -1.13-.59 5.66 5.66 0 0 1 -1.2-.73 2.64 2.64 0 0 1 -.64-.81 2.25 2.25 0 0 1 -.24-1.07 2.28 2.28 0 0 1 .78-1.83 3.3 3.3 0 0 1 2.18-.66 5 5 0 0 1 1.3.16 10.64 10.64 0 0 1 1.3.45l-.6 1.45a8.53 8.53 0 0 0 -1.16-.4 3.6 3.6 0 0 0 -.9-.12 1.17 1.17 0 0 0 -.81.25.79.79 0 0 0 -.28.64.89.89 0 0 0 .11.43 1.4 1.4 0 0 0 .37.35 10.1 10.1 0 0 0 1.17.61 4.53 4.53 0 0 1 1.68 1.18 2.24 2.24 0 0 1 .5 1.46z"/><path d="m170.8 143.28 1.82-3.61h2l-2.9 5.35v3.4h-1.84v-3.34l-2.9-5.41h2z"/><path d="m183.65 148.42h-2.35l-3.81-6.62h-.05c.07 1.17.11 2 .11 2.51v4.11h-1.66v-8.75h2.34l3.8 6.56c-.06-1.14-.09-1.95-.09-2.42v-4.14h1.67z"/><path d="m166.66 208.42-.63-2.08h-3.19l-.64 2.08h-2l3.08-8.78h2.27l3.1 8.78zm-1.08-3.64c-.58-1.89-.91-2.95-1-3.2s-.12-.44-.15-.59c-.14.51-.51 1.78-1.14 3.79z"/><path d="m173.32 201.09a1.87 1.87 0 0 0 -1.62.79 3.66 3.66 0 0 0 -.58 2.19c0 2 .74 2.92 2.2 2.92a6.81 6.81 0 0 0 2.23-.46v1.56a6.18 6.18 0 0 1 -2.4.45 3.66 3.66 0 0 1 -2.92-1.16 4.87 4.87 0 0 1 -1-3.32 5.43 5.43 0 0 1 .49-2.39 3.6 3.6 0 0 1 1.43-1.58 4.27 4.27 0 0 1 2.18-.54 5.89 5.89 0 0 1 2.56.61l-.6 1.51a9.24 9.24 0 0 0 -1-.41 3.11 3.11 0 0 0 -.97-.17z"/><path d="m184.4 208.42h-2.1l-2.3-3.69-.79.57v3.12h-1.85v-8.75h1.85v4l.73-1 2.37-3h2.06l-3 3.87z"/><path d="m152.43 176a2.3 2.3 0 0 1 -.85 1.87 3.75 3.75 0 0 1 -2.38.68 5.54 5.54 0 0 1 -2.47-.53v-1.72a11.36 11.36 0 0 0 1.49.56 4.87 4.87 0 0 0 1.13.16 1.54 1.54 0 0 0 .93-.24.78.78 0 0 0 .33-.69.77.77 0 0 0 -.15-.46 1.44 1.44 0 0 0 -.42-.38 10.19 10.19 0 0 0 -1.13-.6 5.08 5.08 0 0 1 -1.2-.72 2.64 2.64 0 0 1 -.64-.81 2.53 2.53 0 0 1 .54-2.9 3.3 3.3 0 0 1 2.18-.66 5 5 0 0 1 1.3.16 10.64 10.64 0 0 1 1.3.45l-.6 1.45a8.81 8.81 0 0 0 -1.16-.41 4.1 4.1 0 0 0 -.9-.11 1.17 1.17 0 0 0 -.81.25.79.79 0 0 0 -.28.64.82.82 0 0 0 .11.42 1.27 1.27 0 0 0 .37.36 10.1 10.1 0 0 0 1.17.61 4.53 4.53 0 0 1 1.68 1.18 2.24 2.24 0 0 1 .46 1.44z"/><path d="m157.11 173.27 1.82-3.6h2l-2.93 5.33v3.4h-1.84v-3.34l-2.9-5.41h2z"/><path d="m170 178.42h-2.35l-3.81-6.62h-.05c.07 1.17.11 2 .11 2.5v4.12h-1.7v-8.75h2.34l3.8 6.55c-.06-1.13-.09-1.94-.09-2.41v-4.14h1.75z"/><path d="m180.7 178.42-.63-2.08h-3.19l-.63 2.08h-2l3.08-8.78h2.27l3.1 8.78zm-1.07-3.64c-.59-1.88-.92-2.95-1-3.2s-.13-.44-.16-.58c-.13.51-.51 1.77-1.13 3.78z"/><path d="m187.36 171.09a1.87 1.87 0 0 0 -1.62.79 3.66 3.66 0 0 0 -.57 2.19c0 2 .73 2.93 2.19 2.93a7.08 7.08 0 0 0 2.23-.46v1.55a6.11 6.11 0 0 1 -2.4.45 3.67 3.67 0 0 1 -2.92-1.16 4.92 4.92 0 0 1 -1-3.32 5.29 5.29 0 0 1 .5-2.39 3.5 3.5 0 0 1 1.42-1.57 4.18 4.18 0 0 1 2.18-.55 5.86 5.86 0 0 1 2.56.61l-.59 1.51c-.33-.15-.66-.29-1-.41a3.11 3.11 0 0 0 -.98-.17z"/><path d="m198.45 178.42h-2.11l-2.29-3.69-.78.57v3.12h-1.86v-8.75h1.86v4l.73-1 2.36-3h2.06l-3 3.87z"/></g><path d="m134.49 159.11h73.35" fill="none" stroke="url(#d)" stroke-linecap="round" stroke-linejoin="round" stroke-width="2"/><path d="m203.85 162.5 3.4-3.39-3.4-3.39h2.88l3.39 3.39-3.39 3.39z" fill="url(#d)"/><path d="m136.77 189.11h73.35" fill="none" stroke="url(#e)" stroke-linecap="round" stroke-linejoin="round" stroke-width="2"/><path d="m140.76 192.5-3.4-3.39 3.4-3.39h-2.88l-3.39 3.39 3.39 3.39z" fill="url(#e)"/><path d="m134.49 219.32h73.35" fill="none" stroke="url(#f)" stroke-linecap="round" stroke-linejoin="round" stroke-width="2"/><path d="m203.85 222.71 3.4-3.39-3.4-3.39h2.88l3.39 3.39-3.39 3.39z" fill="url(#f)"/><g fill="#404242"><path d="m112.72 79.27h-1.33v-10.27h-3.61v-1.15h8.56v1.15h-3.62z"/><path d="m122.57 68.87a3.76 3.76 0 0 0 -3 1.25 6.07 6.07 0 0 0 0 6.9 3.71 3.71 0 0 0 3 1.23 10.5 10.5 0 0 0 2.73-.43v1.18a8.32 8.32 0 0 1 -2.93.45 5 5 0 0 1 -3.9-1.54 6.32 6.32 0 0 1 -1.37-4.35 6.86 6.86 0 0 1 .66-3.09 4.74 4.74 0 0 1 1.91-2 5.76 5.76 0 0 1 2.93-.72 7 7 0 0 1 3.14.66l-.56 1.14a6 6 0 0 0 -2.61-.68z"/><path d="m135 71.18a3.19 3.19 0 0 1 -1.19 2.66 5.29 5.29 0 0 1 -3.38.94h-1.43v4.49h-1.3v-11.42h3q4.25 0 4.3 3.33zm-6 2.46h1.2a4.43 4.43 0 0 0 2.55-.57 2.09 2.09 0 0 0 .79-1.83 2 2 0 0 0 -.74-1.69 3.89 3.89 0 0 0 -2.31-.55h-1.49z"/><path d="m150.17 79.27h-1.33v-5.38h-6v5.38h-1.33v-11.42h1.33v4.86h6v-4.86h1.33z"/><path d="m160.65 79.27-1.42-3.63h-4.58l-1.4 3.63h-1.35l4.52-11.47h1.12l4.46 11.47zm-1.83-4.83-1.33-3.54c-.17-.45-.35-1-.53-1.65a17 17 0 0 1 -.49 1.65l-1.35 3.54z"/><path d="m172.69 79.27h-1.52l-6.24-9.59h-.06c.08 1.13.12 2.16.12 3.1v6.49h-1.22v-11.42h1.5l6.22 9.54h.07c0-.14 0-.59-.07-1.35s-.05-1.31 0-1.64v-6.55h1.24z"/><path d="m184.83 73.45a5.73 5.73 0 0 1 -1.54 4.32 6 6 0 0 1 -4.41 1.5h-3.17v-11.42h3.5a5.12 5.12 0 0 1 5.62 5.6zm-1.41 0a4.59 4.59 0 0 0 -1.12-3.37 4.48 4.48 0 0 0 -3.3-1.08h-2v9.12h1.62a4.92 4.92 0 0 0 3.61-1.12 4.64 4.64 0 0 0 1.19-3.5z"/><path d="m193.66 76.23a2.8 2.8 0 0 1 -1.09 2.35 4.76 4.76 0 0 1 -3 .85 7.4 7.4 0 0 1 -3.12-.53v-1.28a8.56 8.56 0 0 0 1.53.47 8.38 8.38 0 0 0 1.64.17 3.37 3.37 0 0 0 2-.5 1.66 1.66 0 0 0 .67-1.41 1.81 1.81 0 0 0 -.24-1 2.31 2.31 0 0 0 -.79-.7 12 12 0 0 0 -1.7-.72 5.32 5.32 0 0 1 -2.28-1.36 3 3 0 0 1 -.68-2 2.55 2.55 0 0 1 1-2.11 4.11 4.11 0 0 1 2.62-.78 7.73 7.73 0 0 1 3.14.63l-.36 1.15a7.17 7.17 0 0 0 -2.75-.59 2.69 2.69 0 0 0 -1.65.45 1.53 1.53 0 0 0 -.59 1.26 1.86 1.86 0 0 0 .22 1 1.93 1.93 0 0 0 .74.7 9.16 9.16 0 0 0 1.59.7 6.37 6.37 0 0 1 2.44 1.34 2.72 2.72 0 0 1 .66 1.91z"/><path d="m204.49 79.27h-1.33v-5.38h-6v5.38h-1.33v-11.42h1.33v4.86h6v-4.86h1.33z"/><path d="m215 79.27-1.42-3.63h-4.58l-1.41 3.63h-1.34l4.52-11.47h1.11l4.5 11.47zm-1.84-4.83-1.32-3.54a16.27 16.27 0 0 1 -.53-1.65 14.82 14.82 0 0 1 -.5 1.65l-1.34 3.54z"/><path d="m226.34 79.27h-1.56l-4.16-5.54-1.2 1.06v4.48h-1.33v-11.42h1.33v5.66l5.18-5.66h1.57l-4.59 5z"/><path d="m234.45 79.27h-6.37v-11.42h6.37v1.15h-5v3.68h4.73v1.17h-4.73v4.2h5z"/></g><path d="m320.5 156.52h-86.18a3 3 0 0 0 -3 3v29.5a3 3 0 0 0 3 3h86.18a3 3 0 0 0 3-3v-29.5a3 3 0 0 0 -3-3zm-.44 32.09h-85.3v-28.61h85.3zm-43.69-8.76v-11.11a1 1 0 0 1 2.08 0v11.11a1 1 0 1 1 -2.08 0zm7.74 0v-11.11a1 1 0 1 1 2.08 0v11.11a1 1 0 0 1 -2.08 0zm7.74 0v-11.11a1 1 0 1 1 2.07 0v11.11a1 1 0 1 1 -2.07 0zm7.73 0v-11.11a1 1 0 0 1 2.08 0v11.11a1 1 0 1 1 -2.08 0zm-54.16 0v-11.11a1 1 0 1 1 2.08 0v11.11a1 1 0 1 1 -2.08 0zm7.74 0v-11.11a1 1 0 1 1 2.08 0v11.11a1 1 0 1 1 -2.08 0zm7.74 0v-11.11a1 1 0 1 1 2.07 0v11.11a1 1 0 1 1 -2.07 0zm7.73 0v-11.11a1 1 0 0 1 2.08 0v11.11a1 1 0 1 1 -2.08 0zm38.69 0v-11.11a1 1 0 0 1 2.08 0v11.11a1 1 0 1 1 -2.08 0zm2.29 17.09a1.73 1.73 0 0 1 -1.73 1.73h-60.94a1.73 1.73 0 0 1 0-3.46h60.94a1.72 1.72 0 0 1 1.73 1.73z" fill="url(#g)"/><path d="m406.1 219.24h23.2v-23.24h-23.2z" fill="url(#h)"/><path d="m467.86 196.18h-100.19a2.17 2.17 0 0 1 -2.19-2.2v-55.98a2.16 2.16 0 0 1 2.19-2.19h100.19a2.17 2.17 0 0 1 2.2 2.19v55.86a2.29 2.29 0 0 1 -2.2 2.32z" fill="#fff" stroke="url(#i)" stroke-miterlimit="10" stroke-width="3"/><path d="m392.65 219.24h50" fill="none" stroke="url(#j)" stroke-miterlimit="10" stroke-width="3"/><g fill="#808285"><path d="m501.62 145.2v3.35h-1.85v-8.75h2.55a4.42 4.42 0 0 1 2.64.65 2.32 2.32 0 0 1 .85 2 2.35 2.35 0 0 1 -.42 1.38 2.89 2.89 0 0 1 -1.21.94q2 3 2.58 3.81h-2.06l-2.09-3.35zm0-1.51h.6a2.25 2.25 0 0 0 1.3-.3 1 1 0 0 0 .42-.92.94.94 0 0 0 -.43-.88 2.57 2.57 0 0 0 -1.33-.27h-.56z"/><path d="m513.06 148.55h-5v-8.75h5v1.52h-3.18v1.92h3v1.52h-3v2.24h3.18z"/><path d="m520.18 146.12a2.27 2.27 0 0 1 -.85 1.87 3.73 3.73 0 0 1 -2.37.68 5.45 5.45 0 0 1 -2.48-.53v-1.72a10.91 10.91 0 0 0 1.5.56 4.32 4.32 0 0 0 1.12.16 1.65 1.65 0 0 0 .94-.23.89.89 0 0 0 .18-1.16 1.75 1.75 0 0 0 -.42-.38 10.32 10.32 0 0 0 -1.14-.59 5.51 5.51 0 0 1 -1.2-.73 2.64 2.64 0 0 1 -.64-.81 2.51 2.51 0 0 1 .55-2.9 3.27 3.27 0 0 1 2.17-.66 5 5 0 0 1 1.3.16 9.59 9.59 0 0 1 1.3.45l-.6 1.45a8.09 8.09 0 0 0 -1.16-.4 3.48 3.48 0 0 0 -.9-.12 1.17 1.17 0 0 0 -.81.25.82.82 0 0 0 -.28.64.8.8 0 0 0 .12.43 1.1 1.1 0 0 0 .36.35 11.09 11.09 0 0 0 1.17.61 4.67 4.67 0 0 1 1.69 1.18 2.29 2.29 0 0 1 .45 1.44z"/><path d="m527.87 142.53a2.7 2.7 0 0 1 -.88 2.16 3.79 3.79 0 0 1 -2.52.75h-.79v3.11h-1.86v-8.75h2.8a3.69 3.69 0 0 1 2.42.69 2.51 2.51 0 0 1 .83 2.04zm-4.19 1.39h.61a2 2 0 0 0 1.28-.34 1.39 1.39 0 0 0 .07-1.94 1.66 1.66 0 0 0 -1.12-.32h-.84z"/><path d="m537.51 144.17a4.72 4.72 0 0 1 -1.08 3.33 4.67 4.67 0 0 1 -6.18 0 4.78 4.78 0 0 1 -1.07-3.35 4.7 4.7 0 0 1 1.08-3.33 4 4 0 0 1 3.09-1.15 4 4 0 0 1 3.09 1.16 4.75 4.75 0 0 1 1.07 3.34zm-6.39 0a3.64 3.64 0 0 0 .56 2.2 1.93 1.93 0 0 0 1.66.75c1.48 0 2.22-1 2.22-3s-.73-3-2.21-3a2 2 0 0 0 -1.67.74 3.71 3.71 0 0 0 -.56 2.31z"/><path d="m547.07 148.55h-2.36l-3.81-6.62c.07 1.17.11 2 .11 2.51v4.11h-1.71v-8.75h2.34l3.8 6.56c-.06-1.14-.09-2-.09-2.42v-4.14h1.67z"/><path d="m554.54 146.12a2.28 2.28 0 0 1 -.86 1.87 3.73 3.73 0 0 1 -2.37.68 5.48 5.48 0 0 1 -2.48-.53v-1.72a10.91 10.91 0 0 0 1.5.56 4.32 4.32 0 0 0 1.12.16 1.65 1.65 0 0 0 .94-.23.81.81 0 0 0 .33-.7.77.77 0 0 0 -.15-.46 1.44 1.44 0 0 0 -.42-.38 9.89 9.89 0 0 0 -1.13-.59 5.37 5.37 0 0 1 -1.21-.73 2.8 2.8 0 0 1 -.64-.81 2.25 2.25 0 0 1 -.24-1.07 2.29 2.29 0 0 1 .79-1.83 3.3 3.3 0 0 1 2.18-.66 5 5 0 0 1 1.3.16 10 10 0 0 1 1.29.45l-.6 1.45a8 8 0 0 0 -1.15-.4 3.6 3.6 0 0 0 -.9-.12 1.17 1.17 0 0 0 -.81.25.79.79 0 0 0 -.28.64.89.89 0 0 0 .11.43 1.34 1.34 0 0 0 .36.35 11.66 11.66 0 0 0 1.18.61 4.53 4.53 0 0 1 1.68 1.18 2.3 2.3 0 0 1 .46 1.44z"/><path d="m561.22 148.55h-5v-8.75h5v1.52h-3.22v1.92h3v1.52h-3v2.24h3.19z"/><path d="m501.62 175.19v3.36h-1.85v-8.75h2.55a4.42 4.42 0 0 1 2.64.65 2.32 2.32 0 0 1 .85 2 2.35 2.35 0 0 1 -.42 1.38 2.89 2.89 0 0 1 -1.21.94q2 3 2.58 3.81h-2.06l-2.09-3.36zm0-1.5h.6a2.25 2.25 0 0 0 1.3-.3 1 1 0 0 0 .42-.92.94.94 0 0 0 -.43-.88 2.57 2.57 0 0 0 -1.33-.27h-.56z"/><path d="m513.06 178.55h-5v-8.75h5v1.52h-3.18v1.92h3v1.52h-3v2.24h3.18z"/><path d="m520.18 176.12a2.27 2.27 0 0 1 -.85 1.87 3.73 3.73 0 0 1 -2.37.68 5.58 5.58 0 0 1 -2.48-.53v-1.72a10.91 10.91 0 0 0 1.5.56 4.79 4.79 0 0 0 1.12.16 1.57 1.57 0 0 0 .94-.24.79.79 0 0 0 .32-.69.83.83 0 0 0 -.14-.46 1.75 1.75 0 0 0 -.42-.38 11.81 11.81 0 0 0 -1.14-.6 5.53 5.53 0 0 1 -1.2-.72 2.64 2.64 0 0 1 -.64-.81 2.51 2.51 0 0 1 .55-2.9 3.27 3.27 0 0 1 2.17-.66 5 5 0 0 1 1.3.16 9.59 9.59 0 0 1 1.3.45l-.6 1.45a8.33 8.33 0 0 0 -1.16-.41 4 4 0 0 0 -.9-.11 1.17 1.17 0 0 0 -.81.25.82.82 0 0 0 -.28.64.74.74 0 0 0 .12.42 1.12 1.12 0 0 0 .36.36 11.09 11.09 0 0 0 1.17.61 4.67 4.67 0 0 1 1.69 1.18 2.29 2.29 0 0 1 .45 1.44z"/><path d="m527.87 172.53a2.7 2.7 0 0 1 -.88 2.16 3.79 3.79 0 0 1 -2.52.75h-.79v3.11h-1.86v-8.75h2.8a3.69 3.69 0 0 1 2.42.69 2.5 2.5 0 0 1 .83 2.04zm-4.19 1.39h.61a2 2 0 0 0 1.28-.34 1.18 1.18 0 0 0 .43-1 1.22 1.22 0 0 0 -.36-1 1.72 1.72 0 0 0 -1.12-.31h-.84z"/><path d="m537.51 174.16a4.74 4.74 0 0 1 -1.08 3.34 4.67 4.67 0 0 1 -6.18 0 4.8 4.8 0 0 1 -1.07-3.35 4.7 4.7 0 0 1 1.08-3.33 4 4 0 0 1 3.09-1.15 4 4 0 0 1 3.09 1.16 4.74 4.74 0 0 1 1.07 3.33zm-6.39 0a3.65 3.65 0 0 0 .56 2.21 1.92 1.92 0 0 0 1.66.74c1.48 0 2.22-1 2.22-3s-.73-2.95-2.21-2.95a2 2 0 0 0 -1.67.74 3.69 3.69 0 0 0 -.56 2.26z"/><path d="m547.07 178.55h-2.36l-3.81-6.62c.07 1.17.11 2 .11 2.5v4.12h-1.71v-8.75h2.34l3.8 6.55c-.06-1.13-.09-1.94-.09-2.41v-4.14h1.67z"/><path d="m554.54 176.12a2.28 2.28 0 0 1 -.86 1.87 3.73 3.73 0 0 1 -2.37.68 5.62 5.62 0 0 1 -2.48-.53v-1.72a10.91 10.91 0 0 0 1.5.56 4.79 4.79 0 0 0 1.12.16 1.57 1.57 0 0 0 .94-.24.78.78 0 0 0 .33-.69.77.77 0 0 0 -.15-.46 1.44 1.44 0 0 0 -.42-.38 11.27 11.27 0 0 0 -1.13-.6 5.4 5.4 0 0 1 -1.21-.72 2.8 2.8 0 0 1 -.64-.81 2.51 2.51 0 0 1 .55-2.9 3.3 3.3 0 0 1 2.18-.66 5 5 0 0 1 1.3.16 10 10 0 0 1 1.29.45l-.6 1.45a8.27 8.27 0 0 0 -1.15-.41 4.1 4.1 0 0 0 -.9-.11 1.17 1.17 0 0 0 -.81.25.79.79 0 0 0 -.28.64.82.82 0 0 0 .11.42 1.36 1.36 0 0 0 .36.36 11.66 11.66 0 0 0 1.18.61 4.53 4.53 0 0 1 1.68 1.18 2.3 2.3 0 0 1 .46 1.44z"/><path d="m561.22 178.55h-5v-8.75h5v1.52h-3.22v1.92h3v1.52h-3v2.24h3.19z"/><path d="m501.62 205.19v3.36h-1.85v-8.75h2.55a4.42 4.42 0 0 1 2.64.65 2.31 2.31 0 0 1 .85 2 2.37 2.37 0 0 1 -.42 1.38 2.89 2.89 0 0 1 -1.21.94q2 2.94 2.58 3.81h-2.06l-2.09-3.36zm0-1.51h.6a2.25 2.25 0 0 0 1.3-.29 1 1 0 0 0 .42-.92.94.94 0 0 0 -.43-.88 2.57 2.57 0 0 0 -1.33-.27h-.56z"/><path d="m513.06 208.55h-5v-8.75h5v1.52h-3.18v1.92h3v1.52h-3v2.24h3.18z"/><path d="m520.18 206.12a2.27 2.27 0 0 1 -.85 1.87 3.73 3.73 0 0 1 -2.37.68 5.58 5.58 0 0 1 -2.48-.53v-1.72a10.91 10.91 0 0 0 1.5.56 4.79 4.79 0 0 0 1.12.16 1.57 1.57 0 0 0 .94-.24.79.79 0 0 0 .32-.69.83.83 0 0 0 -.14-.46 1.75 1.75 0 0 0 -.42-.38 11.81 11.81 0 0 0 -1.14-.6 5.53 5.53 0 0 1 -1.2-.72 2.64 2.64 0 0 1 -.64-.81 2.28 2.28 0 0 1 -.24-1.07 2.25 2.25 0 0 1 .79-1.83 3.27 3.27 0 0 1 2.17-.66 5 5 0 0 1 1.3.16 9.59 9.59 0 0 1 1.3.45l-.6 1.44a9.57 9.57 0 0 0 -1.16-.4 4 4 0 0 0 -.9-.11 1.17 1.17 0 0 0 -.81.25.82.82 0 0 0 -.28.64.74.74 0 0 0 .12.42 1.22 1.22 0 0 0 .36.36c.16.11.56.31 1.17.61a4.67 4.67 0 0 1 1.69 1.18 2.29 2.29 0 0 1 .45 1.44z"/><path d="m527.87 202.53a2.7 2.7 0 0 1 -.88 2.16 3.79 3.79 0 0 1 -2.52.75h-.79v3.11h-1.86v-8.75h2.8a3.69 3.69 0 0 1 2.42.69 2.48 2.48 0 0 1 .83 2.04zm-4.19 1.39h.61a2 2 0 0 0 1.28-.34 1.19 1.19 0 0 0 .43-1 1.22 1.22 0 0 0 -.36-1 1.72 1.72 0 0 0 -1.12-.31h-.84z"/><path d="m537.51 204.16a4.74 4.74 0 0 1 -1.08 3.34 4.67 4.67 0 0 1 -6.18 0 4.8 4.8 0 0 1 -1.07-3.35 4.68 4.68 0 0 1 1.08-3.33 4.7 4.7 0 0 1 6.18 0 4.79 4.79 0 0 1 1.07 3.34zm-6.39 0a3.65 3.65 0 0 0 .56 2.21 1.92 1.92 0 0 0 1.66.74c1.48 0 2.22-1 2.22-3s-.73-2.95-2.21-2.95a2 2 0 0 0 -1.67.74 3.69 3.69 0 0 0 -.56 2.26z"/><path d="m547.07 208.55h-2.36l-3.81-6.62c.07 1.17.11 2 .11 2.5v4.12h-1.71v-8.75h2.34l3.8 6.55c-.06-1.13-.09-1.94-.09-2.41v-4.14h1.67z"/><path d="m554.54 206.12a2.28 2.28 0 0 1 -.86 1.87 3.73 3.73 0 0 1 -2.37.68 5.62 5.62 0 0 1 -2.48-.53v-1.72a10.91 10.91 0 0 0 1.5.56 4.79 4.79 0 0 0 1.12.16 1.57 1.57 0 0 0 .94-.24.78.78 0 0 0 .33-.69.77.77 0 0 0 -.15-.46 1.44 1.44 0 0 0 -.42-.38 11.27 11.27 0 0 0 -1.13-.6 5.4 5.4 0 0 1 -1.21-.72 2.8 2.8 0 0 1 -.64-.81 2.51 2.51 0 0 1 .55-2.9 3.3 3.3 0 0 1 2.18-.66 5 5 0 0 1 1.3.16 10 10 0 0 1 1.29.45l-.6 1.44a9.51 9.51 0 0 0 -1.15-.4 4.1 4.1 0 0 0 -.9-.11 1.17 1.17 0 0 0 -.81.25.79.79 0 0 0 -.28.64.82.82 0 0 0 .11.42 1.53 1.53 0 0 0 .36.36c.17.11.56.31 1.18.61a4.53 4.53 0 0 1 1.68 1.18 2.3 2.3 0 0 1 .46 1.44z"/><path d="m561.22 208.55h-5v-8.75h5v1.52h-3.22v1.92h3v1.52h-3v2.24h3.19z"/></g><path d="m492.49 159.24h73.35" fill="none" stroke="url(#k)" stroke-linecap="round" stroke-linejoin="round" stroke-width="2"/><path d="m561.85 162.63 3.4-3.39-3.4-3.39h2.88l3.39 3.39-3.39 3.39z" fill="url(#k)"/><path d="m492.49 189.24h73.35" fill="none" stroke="url(#l)" stroke-linecap="round" stroke-linejoin="round" stroke-width="2"/><path d="m561.85 192.63 3.4-3.39-3.4-3.39h2.88l3.39 3.39-3.39 3.39z" fill="url(#l)"/><g fill="#808285"><path d="m505.67 115.2v3.35h-1.85v-8.74h2.55a4.39 4.39 0 0 1 2.64.64 2.61 2.61 0 0 1 .43 3.35 2.89 2.89 0 0 1 -1.21.94q2 3 2.58 3.81h-2.06l-2.09-3.35zm0-1.51h.6a2.34 2.34 0 0 0 1.3-.29 1.07 1.07 0 0 0 .42-.93.94.94 0 0 0 -.43-.88 2.54 2.54 0 0 0 -1.32-.26h-.57z"/><path d="m517.11 118.55h-5v-8.74h5v1.52h-3.18v1.92h3v1.52h-3v2.23h3.18z"/><path d="m526.81 114.17a5.41 5.41 0 0 1 -.55 2.58 3.3 3.3 0 0 1 -1.6 1.53l2.1 2.35h-2.37l-1.61-2h-.14a4 4 0 0 1 -3.08-1.16 4.77 4.77 0 0 1 -1.08-3.35 4.71 4.71 0 0 1 1.08-3.34 4 4 0 0 1 3.1-1.15 4 4 0 0 1 3.08 1.16 4.75 4.75 0 0 1 1.07 3.38zm-6.39 0a3.64 3.64 0 0 0 .56 2.2 1.94 1.94 0 0 0 1.66.75c1.48 0 2.22-1 2.22-3s-.73-3-2.2-3a2 2 0 0 0 -1.66.88 3.58 3.58 0 0 0 -.58 2.17z"/><path d="m535.71 109.81v5.66a3.22 3.22 0 0 1 -.43 1.69 2.84 2.84 0 0 1 -1.25 1.12 4.51 4.51 0 0 1 -1.94.39 3.73 3.73 0 0 1 -2.62-.86 3.09 3.09 0 0 1 -.94-2.37v-5.63h1.85v5.35a2.24 2.24 0 0 0 .41 1.48 2.1 2.1 0 0 0 2.67 0 2.27 2.27 0 0 0 .41-1.49v-5.34z"/><path d="m542.87 118.55h-5v-8.74h5v1.52h-3.19v1.92h3v1.52h-3v2.23h3.19z"/><path d="m550 116.12a2.27 2.27 0 0 1 -.85 1.87 3.67 3.67 0 0 1 -2.37.68 5.61 5.61 0 0 1 -2.48-.52v-1.73a9.74 9.74 0 0 0 1.5.56 4.32 4.32 0 0 0 1.12.16 1.65 1.65 0 0 0 .94-.23.8.8 0 0 0 .32-.7.71.71 0 0 0 -.14-.45 1.59 1.59 0 0 0 -.42-.39 11.24 11.24 0 0 0 -1.14-.59 5.51 5.51 0 0 1 -1.2-.73 2.89 2.89 0 0 1 -.64-.8 2.32 2.32 0 0 1 -.24-1.08 2.29 2.29 0 0 1 .79-1.83 3.27 3.27 0 0 1 2.17-.66 5.11 5.11 0 0 1 1.31.16 8.77 8.77 0 0 1 1.29.46l-.6 1.44a8 8 0 0 0 -1.15-.4 3.61 3.61 0 0 0 -.91-.12 1.18 1.18 0 0 0 -.8.25.8.8 0 0 0 -.28.64.79.79 0 0 0 .11.43 1.21 1.21 0 0 0 .36.35 11.66 11.66 0 0 0 1.18.61 4.74 4.74 0 0 1 1.68 1.18 2.29 2.29 0 0 1 .45 1.44z"/><path d="m555.27 118.55h-1.86v-7.2h-2.41v-1.54h6.6v1.54h-2.37z"/></g><path d="m494.77 129.24h73.35" fill="none" stroke="url(#m)" stroke-linecap="round" stroke-linejoin="round" stroke-width="2"/><path d="m498.76 132.63-3.4-3.39 3.4-3.39h-2.88l-3.39 3.39 3.39 3.39z" fill="url(#m)"/><path d="m492.49 219.24h73.35" fill="none" stroke="url(#n)" stroke-linecap="round" stroke-linejoin="round" stroke-width="2"/><path d="m561.85 222.63 3.4-3.39-3.4-3.4h2.88l3.39 3.4-3.39 3.39z" fill="url(#n)"/><g fill="#404242"><path d="m523.33 67.76v7.4a4 4 0 0 1 -1.18 3.07 4.52 4.52 0 0 1 -3.24 1.11 4.32 4.32 0 0 1 -3.19-1.12 4.19 4.19 0 0 1 -1.13-3.1v-7.36h1.33v7.46a2.93 2.93 0 0 0 .78 2.19 3.16 3.16 0 0 0 2.3.77 3 3 0 0 0 2.22-.77 3 3 0 0 0 .78-2.21v-7.44z"/><path d="m535.39 73.37a5.75 5.75 0 0 1 -1.54 4.32 6.05 6.05 0 0 1 -4.42 1.5h-3.16v-11.43h3.5a5.14 5.14 0 0 1 5.62 5.61zm-1.41 0a4.56 4.56 0 0 0 -1.12-3.36 4.48 4.48 0 0 0 -3.33-1.14h-1.93v9.13h1.62a4.92 4.92 0 0 0 3.57-1.17 4.65 4.65 0 0 0 1.21-3.42z"/><path d="m545.09 71.09a3.19 3.19 0 0 1 -1.18 2.67 5.39 5.39 0 0 1 -3.39.93h-1.34v4.5h-1.33v-11.43h3q4.24 0 4.24 3.33zm-5.91 2.46h1.19a4.47 4.47 0 0 0 2.56-.57 2.11 2.11 0 0 0 .79-1.82 2 2 0 0 0 -.74-1.69 3.9 3.9 0 0 0 -2.32-.56h-1.48z"/></g><path d="m671.5 156.44h-86.18a3 3 0 0 0 -3 3v29.56a3 3 0 0 0 3 3h86.18a3 3 0 0 0 3-3v-29.5a3 3 0 0 0 -3-3.06zm-.44 32.09h-85.3v-28.63h85.3zm-43.69-8.76v-11.11a1 1 0 1 1 2.08 0v11.11a1 1 0 0 1 -2.08 0zm7.74 0v-11.11a1 1 0 1 1 2.08 0v11.11a1 1 0 0 1 -2.08 0zm7.74 0v-11.11a1 1 0 1 1 2.07 0v11.11a1 1 0 1 1 -2.07 0zm7.73 0v-11.11a1 1 0 1 1 2.08 0v11.11a1 1 0 1 1 -2.08 0zm-54.16 0v-11.11a1 1 0 1 1 2.08 0v11.11a1 1 0 0 1 -2.08 0zm7.74 0v-11.11a1 1 0 1 1 2.08 0v11.11a1 1 0 0 1 -2.08 0zm7.74 0v-11.11a1 1 0 1 1 2.07 0v11.11a1 1 0 1 1 -2.07 0zm7.73 0v-11.11a1 1 0 1 1 2.08 0v11.11a1 1 0 0 1 -2.08 0zm38.69 0v-11.11a1 1 0 1 1 2.08 0v11.11a1 1 0 1 1 -2.08 0zm2.29 17.08a1.72 1.72 0 0 1 -1.73 1.73h-60.94a1.73 1.73 0 0 1 0-3.46h60.94a1.73 1.73 0 0 1 1.73 1.73z" fill="url(#o)"/><g fill="#707070"><path d="m45.31 232.68a2.15 2.15 0 0 1 -.83 1.79 3.56 3.56 0 0 1 -2.28.65 5.46 5.46 0 0 1 -2.38-.45v-1.32a6.35 6.35 0 0 0 1.25.43 5.05 5.05 0 0 0 1.22.16 2 2 0 0 0 1.23-.32 1 1 0 0 0 .4-.85 1 1 0 0 0 -.37-.81 5.35 5.35 0 0 0 -1.5-.79 4 4 0 0 1 -1.65-1.09 2.27 2.27 0 0 1 -.48-1.46 2 2 0 0 1 .76-1.69 3.17 3.17 0 0 1 2-.61 6 6 0 0 1 2.45.54l-.4 1.14a5.34 5.34 0 0 0 -2-.48 1.62 1.62 0 0 0 -1 .29 1 1 0 0 0 -.35.79 1.15 1.15 0 0 0 .14.57 1.64 1.64 0 0 0 .46.45 8.2 8.2 0 0 0 1.16.55 6.83 6.83 0 0 1 1.39.73 2.1 2.1 0 0 1 .85 1.78z"/><path d="m49.65 235.12a3.14 3.14 0 0 1 -2.37-.88 3.35 3.35 0 0 1 -.85-2.43 3.63 3.63 0 0 1 .79-2.49 2.72 2.72 0 0 1 2.18-.91 2.65 2.65 0 0 1 2 .78 3 3 0 0 1 .75 2.14v.75h-4.3a2.13 2.13 0 0 0 .51 1.45 1.8 1.8 0 0 0 1.35.5 4.57 4.57 0 0 0 1.07-.11 5.11 5.11 0 0 0 1.06-.36v1.12a3.88 3.88 0 0 1 -1 .34 6 6 0 0 1 -1.19.1zm-.25-5.67a1.4 1.4 0 0 0 -1.06.42 2 2 0 0 0 -.47 1.21h2.94a1.76 1.76 0 0 0 -.38-1.22 1.35 1.35 0 0 0 -1.03-.41z"/><path d="m59.43 235h-1.38v-4a1.76 1.76 0 0 0 -.3-1.12 1.19 1.19 0 0 0 -1-.37 1.55 1.55 0 0 0 -1.28.52 2.84 2.84 0 0 0 -.4 1.73v3.24h-1.34v-6.48h1.08l.19.85h.07a2 2 0 0 1 .84-.72 2.7 2.7 0 0 1 1.19-.25 2.07 2.07 0 0 1 2.33 2.37z"/><path d="m63.53 235.12a2.25 2.25 0 0 1 -1.89-.88 3.93 3.93 0 0 1 -.68-2.46 4 4 0 0 1 .69-2.49 2.29 2.29 0 0 1 1.91-.88 2.22 2.22 0 0 1 1.94.94h.07a9.4 9.4 0 0 1 -.1-1.1v-2.36h1.39v9.11h-1.08l-.24-.85h-.07a2.2 2.2 0 0 1 -1.94.97zm.37-1.12a1.5 1.5 0 0 0 1.24-.48 2.51 2.51 0 0 0 .4-1.55v-.19a2.86 2.86 0 0 0 -.4-1.74 1.5 1.5 0 0 0 -1.25-.52 1.28 1.28 0 0 0 -1.12.59 3 3 0 0 0 -.39 1.68 2.94 2.94 0 0 0 .38 1.64 1.28 1.28 0 0 0 1.14.57z"/><path d="m71.66 235.12a3.14 3.14 0 0 1 -2.37-.88 3.35 3.35 0 0 1 -.85-2.43 3.63 3.63 0 0 1 .79-2.49 2.72 2.72 0 0 1 2.17-.91 2.67 2.67 0 0 1 2 .78 3 3 0 0 1 .74 2.14v.75h-4.28a2.13 2.13 0 0 0 .51 1.45 1.8 1.8 0 0 0 1.35.5 4.57 4.57 0 0 0 1.07-.11 5.31 5.31 0 0 0 1.06-.36v1.12a3.83 3.83 0 0 1 -1 .34 5.87 5.87 0 0 1 -1.19.1zm-.26-5.67a1.39 1.39 0 0 0 -1.05.42 2 2 0 0 0 -.47 1.21h2.94a1.82 1.82 0 0 0 -.39-1.22 1.33 1.33 0 0 0 -1.03-.41z"/><path d="m79 228.41a3.23 3.23 0 0 1 .68.06l-.13 1.28a2.48 2.48 0 0 0 -.61-.07 1.76 1.76 0 0 0 -1.34.54 2 2 0 0 0 -.51 1.4v3.38h-1.35v-6.48h1.08l.18 1.14h.07a2.41 2.41 0 0 1 .84-.92 2 2 0 0 1 1.09-.33z"/><path d="m254.84 231.58v3.42h-1.4v-8.57h2.42a4 4 0 0 1 2.45.62 2.23 2.23 0 0 1 .8 1.88 2.34 2.34 0 0 1 -1.67 2.27l2.42 3.8h-1.59l-2-3.43zm0-1.16h1a2.26 2.26 0 0 0 1.42-.36 1.32 1.32 0 0 0 .44-1.08 1.15 1.15 0 0 0 -.48-1 2.59 2.59 0 0 0 -1.43-.32h-.92z"/><path d="m263.79 235.12a3.1 3.1 0 0 1 -2.36-.88 3.35 3.35 0 0 1 -.86-2.43 3.68 3.68 0 0 1 .79-2.49 2.74 2.74 0 0 1 2.18-.91 2.69 2.69 0 0 1 2 .78 3 3 0 0 1 .74 2.14v.75h-4.28a2.13 2.13 0 0 0 .51 1.45 1.8 1.8 0 0 0 1.35.5 4.51 4.51 0 0 0 1.07-.11 5.39 5.39 0 0 0 1.07-.36v1.12a4.08 4.08 0 0 1 -1 .34 6 6 0 0 1 -1.21.1zm-.25-5.67a1.36 1.36 0 0 0 -1.05.42 2 2 0 0 0 -.48 1.21h2.99a1.82 1.82 0 0 0 -.39-1.22 1.33 1.33 0 0 0 -1.07-.41z"/><path d="m270.49 235.12a2.82 2.82 0 0 1 -2.24-.86 4.35 4.35 0 0 1 0-5 2.94 2.94 0 0 1 2.31-.88 4.35 4.35 0 0 1 1.84.38l-.4 1.14a4.07 4.07 0 0 0 -1.44-.34c-1.12 0-1.68.74-1.68 2.23a2.68 2.68 0 0 0 .41 1.64 1.46 1.46 0 0 0 1.23.54 3.58 3.58 0 0 0 1.74-.45v1.2a2.71 2.71 0 0 1 -.79.31 4.85 4.85 0 0 1 -.98.09z"/><path d="m276.65 235.12a3.14 3.14 0 0 1 -2.37-.88 3.35 3.35 0 0 1 -.85-2.43 3.63 3.63 0 0 1 .79-2.49 2.72 2.72 0 0 1 2.17-.91 2.67 2.67 0 0 1 2 .78 3 3 0 0 1 .74 2.14v.75h-4.31a2.13 2.13 0 0 0 .51 1.45 1.8 1.8 0 0 0 1.35.5 4.57 4.57 0 0 0 1.07-.11 5.31 5.31 0 0 0 1.06-.36v1.12a3.83 3.83 0 0 1 -1 .34 5.87 5.87 0 0 1 -1.16.1zm-.26-5.67a1.39 1.39 0 0 0 -1.05.42 2 2 0 0 0 -.47 1.21h2.94a1.82 1.82 0 0 0 -.39-1.22 1.33 1.33 0 0 0 -1.03-.41z"/><path d="m280.65 226.81a.74.74 0 0 1 .2-.57.8.8 0 0 1 .58-.2.77.77 0 0 1 .56.2.74.74 0 0 1 .2.57.72.72 0 0 1 -.2.55.73.73 0 0 1 -.56.2.76.76 0 0 1 -.58-.2.72.72 0 0 1 -.2-.55zm1.46 8.2h-1.38v-6.48h1.38z"/><path d="m285.55 235-2.46-6.48h1.45l1.32 3.76a7 7 0 0 1 .41 1.54h.05a9.75 9.75 0 0 1 .41-1.54l1.32-3.76h1.46l-2.51 6.48z"/><path d="m293.33 235.12a3.14 3.14 0 0 1 -2.37-.88 3.35 3.35 0 0 1 -.85-2.43 3.63 3.63 0 0 1 .79-2.49 2.72 2.72 0 0 1 2.18-.91 2.65 2.65 0 0 1 2 .78 3 3 0 0 1 .75 2.14v.75h-4.32a2.13 2.13 0 0 0 .51 1.45 1.8 1.8 0 0 0 1.35.5 4.57 4.57 0 0 0 1.07-.11 5.11 5.11 0 0 0 1.06-.36v1.12a3.83 3.83 0 0 1 -1 .34 5.87 5.87 0 0 1 -1.17.1zm-.25-5.67a1.4 1.4 0 0 0 -1.06.42 2 2 0 0 0 -.47 1.21h2.94a1.76 1.76 0 0 0 -.38-1.22 1.35 1.35 0 0 0 -1.03-.41z"/><path d="m300.7 228.41a3.17 3.17 0 0 1 .68.06l-.13 1.28a2.48 2.48 0 0 0 -.61-.07 1.76 1.76 0 0 0 -1.34.54 2 2 0 0 0 -.51 1.4v3.38h-1.38v-6.48h1.08l.18 1.14h.07a2.58 2.58 0 0 1 .84-.92 2 2 0 0 1 1.12-.33z"/><path d="m403.31 232.68a2.15 2.15 0 0 1 -.83 1.79 3.56 3.56 0 0 1 -2.28.65 5.46 5.46 0 0 1 -2.38-.45v-1.32a6.35 6.35 0 0 0 1.25.43 5.05 5.05 0 0 0 1.22.16 2 2 0 0 0 1.23-.32 1 1 0 0 0 .4-.85 1 1 0 0 0 -.37-.81 5.35 5.35 0 0 0 -1.5-.79 4 4 0 0 1 -1.65-1.09 2.27 2.27 0 0 1 -.48-1.46 2 2 0 0 1 .76-1.69 3.17 3.17 0 0 1 2.05-.61 6 6 0 0 1 2.45.54l-.45 1.14a5.34 5.34 0 0 0 -2-.48 1.62 1.62 0 0 0 -1 .29 1 1 0 0 0 -.35.79 1.15 1.15 0 0 0 .14.57 1.64 1.64 0 0 0 .46.45 8.2 8.2 0 0 0 1.16.55 6.83 6.83 0 0 1 1.39.73 2.1 2.1 0 0 1 .85 1.78z"/><path d="m407.65 235.12a3.14 3.14 0 0 1 -2.37-.88 3.35 3.35 0 0 1 -.85-2.43 3.63 3.63 0 0 1 .79-2.49 2.72 2.72 0 0 1 2.18-.91 2.65 2.65 0 0 1 2 .78 3 3 0 0 1 .75 2.14v.75h-4.32a2.13 2.13 0 0 0 .51 1.45 1.8 1.8 0 0 0 1.35.5 4.57 4.57 0 0 0 1.07-.11 5.11 5.11 0 0 0 1.06-.36v1.12a3.88 3.88 0 0 1 -1 .34 6 6 0 0 1 -1.17.1zm-.25-5.67a1.4 1.4 0 0 0 -1.06.42 2 2 0 0 0 -.47 1.21h2.94a1.76 1.76 0 0 0 -.38-1.22 1.35 1.35 0 0 0 -1.03-.41z"/><path d="m417.43 235h-1.38v-4a1.76 1.76 0 0 0 -.3-1.12 1.19 1.19 0 0 0 -1-.37 1.55 1.55 0 0 0 -1.28.52 2.84 2.84 0 0 0 -.4 1.73v3.24h-1.38v-6.48h1.08l.19.85h.07a2 2 0 0 1 .84-.72 2.7 2.7 0 0 1 1.19-.25 2.07 2.07 0 0 1 2.33 2.37z"/><path d="m421.53 235.12a2.25 2.25 0 0 1 -1.89-.88 3.93 3.93 0 0 1 -.68-2.46 4 4 0 0 1 .69-2.49 2.29 2.29 0 0 1 1.91-.88 2.22 2.22 0 0 1 1.94.94h.07a9.4 9.4 0 0 1 -.1-1.1v-2.36h1.39v9.11h-1.08l-.24-.85h-.07a2.2 2.2 0 0 1 -1.94.97zm.37-1.11a1.5 1.5 0 0 0 1.24-.48 2.51 2.51 0 0 0 .4-1.55v-.19a2.86 2.86 0 0 0 -.4-1.74 1.5 1.5 0 0 0 -1.25-.52 1.28 1.28 0 0 0 -1.12.59 3 3 0 0 0 -.39 1.68 2.94 2.94 0 0 0 .38 1.64 1.28 1.28 0 0 0 1.14.56z"/><path d="m429.66 235.12a3.14 3.14 0 0 1 -2.37-.88 3.35 3.35 0 0 1 -.85-2.43 3.63 3.63 0 0 1 .79-2.49 2.72 2.72 0 0 1 2.17-.91 2.67 2.67 0 0 1 2 .78 3 3 0 0 1 .74 2.14v.75h-4.31a2.13 2.13 0 0 0 .51 1.45 1.8 1.8 0 0 0 1.35.5 4.57 4.57 0 0 0 1.07-.11 5.31 5.31 0 0 0 1.06-.36v1.12a3.83 3.83 0 0 1 -1 .34 5.87 5.87 0 0 1 -1.16.1zm-.26-5.67a1.39 1.39 0 0 0 -1 .42 2 2 0 0 0 -.47 1.21h2.94a1.82 1.82 0 0 0 -.39-1.22 1.33 1.33 0 0 0 -1.08-.41z"/><path d="m437 228.41a3.23 3.23 0 0 1 .68.06l-.13 1.28a2.48 2.48 0 0 0 -.61-.07 1.76 1.76 0 0 0 -1.34.54 2 2 0 0 0 -.51 1.4v3.38h-1.38v-6.48h1.08l.18 1.14h.07a2.41 2.41 0 0 1 .84-.92 2 2 0 0 1 1.12-.33z"/><path d="m605.84 231.58v3.42h-1.4v-8.57h2.42a4 4 0 0 1 2.45.62 2.23 2.23 0 0 1 .8 1.88 2.34 2.34 0 0 1 -1.67 2.27l2.42 3.8h-1.59l-2-3.43zm0-1.16h1a2.26 2.26 0 0 0 1.42-.36 1.32 1.32 0 0 0 .44-1.08 1.15 1.15 0 0 0 -.48-1 2.59 2.59 0 0 0 -1.43-.32h-.92z"/><path d="m614.79 235.12a3.1 3.1 0 0 1 -2.36-.88 3.35 3.35 0 0 1 -.86-2.43 3.68 3.68 0 0 1 .79-2.49 2.74 2.74 0 0 1 2.18-.91 2.69 2.69 0 0 1 2 .78 3 3 0 0 1 .74 2.14v.75h-4.28a2.13 2.13 0 0 0 .51 1.45 1.8 1.8 0 0 0 1.35.5 4.51 4.51 0 0 0 1.07-.11 5.39 5.39 0 0 0 1.07-.36v1.12a4.08 4.08 0 0 1 -1 .34 6 6 0 0 1 -1.21.1zm-.25-5.67a1.36 1.36 0 0 0 -1 .42 2 2 0 0 0 -.48 1.21h3a1.82 1.82 0 0 0 -.39-1.22 1.33 1.33 0 0 0 -1.13-.41z"/><path d="m621.49 235.12a2.82 2.82 0 0 1 -2.24-.86 4.35 4.35 0 0 1 0-5 2.94 2.94 0 0 1 2.31-.88 4.35 4.35 0 0 1 1.84.38l-.4 1.14a4.07 4.07 0 0 0 -1.44-.34c-1.12 0-1.68.74-1.68 2.23a2.68 2.68 0 0 0 .41 1.64 1.46 1.46 0 0 0 1.23.54 3.58 3.58 0 0 0 1.74-.45v1.2a2.71 2.71 0 0 1 -.79.31 4.85 4.85 0 0 1 -.98.09z"/><path d="m627.65 235.12a3.14 3.14 0 0 1 -2.37-.88 3.35 3.35 0 0 1 -.85-2.43 3.63 3.63 0 0 1 .79-2.49 2.72 2.72 0 0 1 2.17-.91 2.67 2.67 0 0 1 2 .78 3 3 0 0 1 .74 2.14v.75h-4.31a2.13 2.13 0 0 0 .51 1.45 1.8 1.8 0 0 0 1.35.5 4.57 4.57 0 0 0 1.07-.11 5.31 5.31 0 0 0 1.06-.36v1.12a3.83 3.83 0 0 1 -1 .34 5.87 5.87 0 0 1 -1.16.1zm-.26-5.67a1.39 1.39 0 0 0 -1 .42 2 2 0 0 0 -.47 1.21h2.94a1.82 1.82 0 0 0 -.39-1.22 1.33 1.33 0 0 0 -1.08-.41z"/><path d="m631.65 226.81a.74.74 0 0 1 .2-.57.8.8 0 0 1 .58-.2.77.77 0 0 1 .56.2.74.74 0 0 1 .2.57.72.72 0 0 1 -.2.55.73.73 0 0 1 -.56.2.76.76 0 0 1 -.58-.2.72.72 0 0 1 -.2-.55zm1.46 8.2h-1.38v-6.48h1.38z"/><path d="m636.55 235-2.46-6.48h1.45l1.32 3.76a7 7 0 0 1 .41 1.54h.05a9.75 9.75 0 0 1 .41-1.54l1.32-3.76h1.46l-2.51 6.48z"/><path d="m644.33 235.12a3.14 3.14 0 0 1 -2.37-.88 3.35 3.35 0 0 1 -.85-2.43 3.63 3.63 0 0 1 .79-2.49 2.72 2.72 0 0 1 2.18-.91 2.65 2.65 0 0 1 2 .78 3 3 0 0 1 .75 2.14v.75h-4.32a2.13 2.13 0 0 0 .51 1.45 1.8 1.8 0 0 0 1.35.5 4.57 4.57 0 0 0 1.07-.11 5.11 5.11 0 0 0 1.06-.36v1.12a3.83 3.83 0 0 1 -1 .34 5.87 5.87 0 0 1 -1.17.1zm-.25-5.67a1.4 1.4 0 0 0 -1.06.42 2 2 0 0 0 -.47 1.21h2.94a1.76 1.76 0 0 0 -.38-1.22 1.35 1.35 0 0 0 -1.03-.41z"/><path d="m651.7 228.41a3.17 3.17 0 0 1 .68.06l-.13 1.28a2.48 2.48 0 0 0 -.61-.07 1.76 1.76 0 0 0 -1.34.54 2 2 0 0 0 -.51 1.4v3.38h-1.38v-6.48h1.08l.18 1.14h.07a2.58 2.58 0 0 1 .84-.92 2 2 0 0 1 1.12-.33z"/></g></svg>